# xmcd
#
# Track frame offsets:
#	150
#	16017
#	31196
#	43221
#	60459
#	77392
#	92324
#	109763
#	136129
#	152431
#	169210
#	184140
#	201034
#	201915
#	217894
#
# Disc length: 3199 seconds
#
# Revision: 1
# Processed by: cddbd v1.5.1PL2 Copyright (c) Steve Scherf et al.
# Submitted via: audiograbber 1.83.01
#
DISCID=b30c7d0f
DTITLE=Rodeo - Time For Rodeo
DYEAR=2002
DGENRE=Country
TTITLE0=Time For Rodeo
TTITLE1=See The Light
TTITLE2=What You GoneDo With A Cowboy
TTITLE3=I Need You
TTITLE4=Call Me Lucky
TTITLE5=The Vineyard
TTITLE6=Marie Laveau
TTITLE7=At The End Of Every Summer
TTITLE8=Ought To Be A Law
TTITLE9=Three Steps To Heaven
TTITLE10=One Hell Of A Ball
TTITLE11=Standing Out In The Cold
TTITLE12=R.I.P.
TTITLE13=The Devil Went Down To Georgia
TTITLE14=State Of Wyoming
EXTD=
EXTT0=
EXTT1=
EXTT2=
EXTT3=
EXTT4=
EXTT5=
EXTT6=
EXTT7=
EXTT8=
EXTT9=
EXTT10=
EXTT11=
EXTT12=
EXTT13=
EXTT14=
PLAYORDER=
